Coordinates
nRows=15
nColumns=24

# SIMM Motion File Header:
name Coordinates
datacolumns 24
datarows 15
otherdata 1
range 1.26333000000000010000 1.27733000000000010000
endheader
time	pelvis_tx	pelvis_ty	pelvis_tz	pelvis_tilt	pelvis_list	pelvis_rotation	hip_flexion_r	hip_adduction_r	hip_rotation_r	knee_angle_r	ankle_angle_r	subtalar_angle_r	mtp_angle_r	hip_flexion_l	hip_adduction_l	hip_rotation_l	knee_angle_l	ankle_angle_l	subtalar_angle_l	mtp_angle_l	lumbar_extension	lumbar_bending	lumbar_rotation
      1.26333000000000010000	     -0.91772102324683058000	      0.68921360106805607000	      0.26207975134385292000	      4.29023245246458980000	      1.30918571570158650000	     -2.40883419791965640000	     11.75775822658706800000	     -8.95339022271881110000	    -13.01379514811953400000	    -50.98269136137887600000	     10.59154945283937200000	      0.00000000000047396409	     -0.00000000000061748554	     -1.91620590404600550000	      6.53548076778960940000	     -4.55400153339890590000	     -5.59036161911274210000	      3.52923222014439420000	      0.00000000000011765830	      0.00000000000095858599	    -23.44322315301881700000	     -3.57507811736391900000	      1.15999208395937780000
      1.26433000000000000000	     -0.91720682337682979000	      0.68919716197365299000	      0.26212249800703968000	      4.31890088688176730000	      1.30153801241044120000	     -2.42305477009554430000	     11.83683068593476100000	     -8.91551598355408540000	    -12.96090874746037800000	    -50.88272667879832800000	     10.61748129178837600000	      0.00000000000047455255	     -0.00000000000061811699	     -1.99579708397573860000	      6.53344800375412580000	     -4.51732897297472840000	     -5.59471088585620000000	      3.58739819315800680000	      0.00000000000011769897	      0.00000000000095981076	    -23.47117746287205300000	     -3.57307270638089890000	      1.16911664107127340000
      1.26533000000000010000	     -0.91669253738055911000	      0.68918048868657744000	      0.26216515036873633000	      4.34769740463574110000	      1.29394652685289250000	     -2.43726583055602130000	     11.91546435426577200000	     -8.87756747625269150000	    -12.90807810964010800000	    -50.78181582780324300000	     10.64302902607344600000	      0.00000000000047514995	     -0.00000000000061877389	     -2.07551831751538000000	      6.53151462428265010000	     -4.48025963602357090000	     -5.59910560627276780000	      3.64531122507901890000	      0.00000000000011773657	      0.00000000000096103745	    -23.49929873721589500000	     -3.57101680574334560000	      1.17807480305721170000
      1.26633000000000000000	     -0.91617799300547975000	      0.68916311282148468000	      0.26220751982596263000	      4.37687817240007960000	      1.28652369449614160000	     -2.45144835587025240000	     11.99278164954666100000	     -8.83939616454133240000	    -12.85541476033654400000	    -50.67806647156461300000	     10.66742444636667900000	      0.00000000000047577418	     -0.00000000000061950717	     -2.15562971188467680000	      6.52987939850319780000	     -4.44199996949150220000	     -5.60363668770866410000	      3.70246543372217520000	      0.00000000000011776498	      0.00000000000096226987	    -23.52792090503153200000	     -3.56880943614219430000	      1.18653377966526800000
      1.26733000000000010000	     -0.91566344863040028000	      0.68914573695639203000	      0.26224988928318888000	      4.40605894016442520000	      1.27910086213938910000	     -2.46563088118448710000	     12.07009894482756500000	     -8.80122485282996440000	    -12.80275141103296700000	    -50.57431711532595400000	     10.69181986665991800000	      0.00000000000047639840	     -0.00000000000062024044	     -2.23574110625399140000	      6.52824417272374460000	     -4.40374030295942640000	     -5.60816776914456130000	      3.75961964236534430000	      0.00000000000011779338	      0.00000000000096350229	    -23.55654307284718000000	     -3.56660206654104210000	      1.19499275627332620000
      1.26833000000000000000	     -0.91514859975946716000	      0.68912767381323337000	      0.26229180480256503000	      4.43565577164111960000	      1.27180326615388690000	     -2.47967077862861100000	     12.14595505333583200000	     -8.76282538992853510000	    -12.75045944910055900000	    -50.46756073718314900000	     10.71487441947193500000	      0.00000000000047703350	     -0.00000000000062096650	     -2.31625549103771130000	      6.52686123036283220000	     -4.36415188261567530000	     -5.61293673984224740000	      3.81658585924225900000	      0.00000000000011784484	      0.00000000000096471623	    -23.58571492316025000000	     -3.56412013005644250000	      1.20281347795854800000
      1.26933000000000010000	     -0.91463364938991598000	      0.68910938157738622000	      0.26233356900932442000	      4.46539129102194200000	      1.26454741562546640000	     -2.49366313344936820000	     12.22132409958657300000	     -8.72434987663040750000	    -12.69829128295852900000	    -50.35980201840558800000	     10.73748201645688000000	      0.00000000000047767223	     -0.00000000000062169016	     -2.39690420595959130000	      6.52556238247476550000	     -4.32412054433468460000	     -5.61778500696053220000	      3.87348941219710460000	      0.00000000000011790398	      0.00000000000096592402	    -23.61507000097247300000	     -3.56154667127735850000	      1.21042144800282440000
      1.27033000000000000000	     -0.91411858713636451000	      0.68909086658503871000	      0.26237515826777685000	      4.49526341259441690000	      1.25732395428126710000	     -2.50759798438983820000	     12.29620137826787900000	     -8.68580213678287900000	    -12.64627497228233800000	    -50.25104998247601900000	     10.75961050692965600000	      0.00000000000047830173	     -0.00000000000062237341	     -2.47768277925265500000	      6.52433646990036300000	     -4.28366068858953410000	     -5.62273090050135950000	      3.93053592205590350000	      0.00000000000011796169	      0.00000000000096714487	    -23.64460687577591400000	     -3.55886263181831990000	      1.21780271200656620000
      1.27133000000000010000	     -0.91360318923081141000	      0.68907168332319091000	      0.26241622268130843000	      4.52554534074188460000	      1.25019766048972690000	     -2.52136032368945620000	     12.36960335424093700000	     -8.64703771728711420000	    -12.59471422800363300000	    -50.13931799509030900000	     10.78030167786592100000	      0.00000000000047890351	     -0.00000000000062293545	     -2.55885092765934760000	      6.52332936326695560000	     -4.24191528045184980000	     -5.62796967330982410000	      3.98801130262662000000	      0.00000000000011801509	      0.00000000000096840489	    -23.67468914155306000000	     -3.55584685031940890000	      1.22450385788870060000
      1.27233000000000000000	     -0.91308779132525852000	      0.68905250006134300000	      0.26245728709484001000	      4.55582726888934620000	      1.24307136669818830000	     -2.53512266298907110000	     12.44300533021397800000	     -8.60827329779135650000	    -12.54315348372494100000	    -50.02758600770462000000	     10.80099284880218100000	      0.00000000000047950530	     -0.00000000000062349750	     -2.64001907606602250000	      6.52232225663354730000	     -4.20016987231417540000	     -5.63320844611828790000	      4.04548668319732310000	      0.00000000000011806849	      0.00000000000096966491	    -23.70477140733019900000	     -3.55283106882049850000	      1.23120500377083380000
      1.27333000000000010000	     -0.91257204952093618000	      0.68903264141841691000	      0.26249788646506383000	      4.58645640269399650000	      1.23605453423971450000	     -2.54879066861239200000	     12.51508593475558900000	     -8.56933451563318190000	    -12.49197727722129000000	    -49.91311805438218800000	     10.82036066070069900000	      0.00000000000048011958	     -0.00000000000062413252	     -2.72152213134801180000	      6.52154204497369780000	     -4.15738624168966540000	     -5.63871615835356540000	      4.10377172262457270000	      0.00000000000011812149	      0.00000000000097096528	    -23.73531813185445900000	     -3.54953131330580040000	      1.23730147661205870000
      1.27433000000000000000	     -0.91205619308369079000	      0.68901255764846481000	      0.26253833082085165000	      4.61720127171770400000	      1.22907418889226520000	     -2.56242722967694370000	     12.58672608215336000000	     -8.53033761258754630000	    -12.44092924997600100000	    -49.79773811241418000000	     10.83928735291995300000	      0.00000000000048073801	     -0.00000000000062479187	     -2.80313682225508430000	      6.52083746497170400000	     -4.11425653690288410000	     -5.64431351706444760000	      4.16232664833732620000	      0.00000000000011817435	      0.00000000000097227911	    -23.76601967596109000000	     -3.54613689978583890000	      1.24319639177297510000
      1.27533000000000010000	     -0.91154008490889504000	      0.68899203949797339000	      0.26257842341716320000	      4.64817783685185050000	      1.22215904631030830000	     -2.57597812613922490000	     12.65747052003092900000	     -8.49124507516883040000	    -12.39020662840092700000	    -49.68056007948765500000	     10.85737643912251100000	      0.00000000000048134016	     -0.00000000000062535727	     -2.88498338485345180000	      6.52027264627702690000	     -4.07048362880625180000	     -5.65007346256001060000	      4.22139755658293140000	      0.00000000000011824230	      0.00000000000097354922	    -23.79703234004133000000	     -3.54252964148978000000	      1.24866207206389630000
      1.27633000000000000000	     -0.91102372499654916000	      0.68897108696694287000	      0.26261816425399831000	      4.67938609809642170000	      1.21530910649384680000	     -2.58944335799922820000	     12.72731924838825900000	     -8.45205690337704850000	    -12.33980941249609000000	    -49.56158395560265700000	     10.87462791930836100000	      0.00000000000048192603	     -0.00000000000062582871	     -2.96706181914307930000	      6.51984758888966630000	     -4.02606751739978550000	     -5.65599599484025270000	      4.28098444736136320000	      0.00000000000011832532	      0.00000000000097477559	    -23.82835612409516900000	     -3.53870953841762410000	      1.25369851748481880000
      1.27733000000000010000	     -0.91050736508420305000	      0.68895013443591224000	      0.26265790509083348000	      4.71059435934100090000	      1.20845916667738410000	     -2.60290858985923500000	     12.79716797674560500000	     -8.41286873158525770000	    -12.28941219659124200000	    -49.44260783171763100000	     10.89187939949421700000	      0.00000000000048251189	     -0.00000000000062630015	     -3.04914025343272450000	      6.51942253150230580000	     -3.98165140599331040000	     -5.66191852712049660000	      4.34057133813980830000	      0.00000000000011840834	      0.00000000000097600197	    -23.85967990814901500000	     -3.53488943534546780000	      1.25873496290574200000
